<svg width="9" height="16" viewBox="0 0 9 16" xmlns="http://www.w3.org/2000/svg">
<path fill-rule="evenodd" clip-rule="evenodd" d="M0.307488 5.31736C0.249284 5.2593 0.203105 5.19033 0.171597 5.1144C0.140089 5.03847 0.123871 4.95707 0.123871 4.87486C0.123871 4.79265 0.140089 4.71125 0.171597 4.63532C0.203105 4.55939 0.249284 4.49042 0.307488 4.43236L4.05749 0.682359C4.11555 0.624155 4.18452 0.577977 4.26045 0.546469C4.33638 0.514961 4.41778 0.498742 4.49999 0.498742C4.5822 0.498742 4.6636 0.514961 4.73953 0.546469C4.81546 0.577977 4.88443 0.624155 4.94249 0.682359L8.69249 4.43236C8.80985 4.54972 8.87578 4.70889 8.87578 4.87486C8.87578 5.04083 8.80985 5.2 8.69249 5.31736C8.57513 5.43472 8.41596 5.50065 8.24999 5.50065C8.08402 5.50065 7.92485 5.43472 7.80749 5.31736L4.49999 2.00861L1.19249 5.31736C1.13443 5.37556 1.06546 5.42174 0.98953 5.45325C0.913599 5.48476 0.832197 5.50098 0.749988 5.50098C0.667779 5.50098 0.586377 5.48476 0.510446 5.45325C0.434514 5.42174 0.365545 5.37556 0.307488 5.31736Z" fill="currentcolor"/>
<path fill-rule="evenodd" clip-rule="evenodd" d="M4.5 15.5C4.33424 15.5 4.17527 15.4342 4.05806 15.3169C3.94085 15.1997 3.875 15.0408 3.875 14.875L3.875 1.75C3.875 1.58424 3.94085 1.42527 4.05806 1.30806C4.17527 1.19085 4.33424 1.125 4.5 1.125C4.66576 1.125 4.82473 1.19085 4.94194 1.30806C5.05915 1.42527 5.125 1.58424 5.125 1.75L5.125 14.875C5.125 15.0408 5.05915 15.1997 4.94194 15.3169C4.82473 15.4342 4.66576 15.5 4.5 15.5Z" fill="currentcolor"/>
</svg>
