<svg viewBox="0 0 14 14" xmlns="http://www.w3.org/2000/svg">
<path d="M13.8657 4.67725C13.8151 4.6074 13.7524 4.55132 13.6818 4.51287C13.6113 4.47442 13.5345 4.45451 13.4568 4.45452H10.2286V1.90908C10.2286 1.40276 10.0585 0.917179 9.75585 0.559157C9.45315 0.201135 9.0426 0 8.61452 0H5.38636C4.95828 0 4.54773 0.201135 4.24503 0.559157C3.94233 0.917179 3.77228 1.40276 3.77228 1.90908V4.45452H0.544119C0.46613 4.45347 0.388881 4.4725 0.317725 4.51027C0.246569 4.54804 0.183207 4.60366 0.132029 4.67327C0.0808507 4.74288 0.0430804 4.82482 0.0213348 4.91341C-0.000410723 5.00201 -0.00561161 5.09513 0.00609251 5.18633L1.01758 12.9181C1.05649 13.2216 1.18683 13.4982 1.38457 13.697C1.58231 13.8958 1.83413 14.0034 2.09364 13.9999H11.918C12.1775 14.0034 12.4293 13.8958 12.6271 13.697C12.8248 13.4982 12.9551 13.2216 12.9941 12.9181L13.9948 5.18633C14.0056 5.09548 13.9996 5.00295 13.9773 4.91508C13.955 4.82721 13.9169 4.74608 13.8657 4.67725ZM4.84833 1.90908C4.84833 1.74031 4.90502 1.57845 5.00592 1.45911C5.10682 1.33976 5.24366 1.27272 5.38636 1.27272H8.61452C8.75721 1.27272 8.89406 1.33976 8.99496 1.45911C9.09586 1.57845 9.15254 1.74031 9.15254 1.90908V4.45452H4.84833V1.90908ZM11.918 12.7272H2.08288L1.17361 5.72724H12.8273L11.918 12.7272Z" fill="currentcolor"/>
</svg>
