<svg width="13" height="9" viewBox="0 0 13 9" fill="none" xmlns="http://www.w3.org/2000/svg">
<path d="M4.71128 8.86588L0.649596 4.82698C0.626172 4.80369 0.607583 4.776 0.594898 4.74549C0.582214 4.71499 0.575684 4.68228 0.575684 4.64925C0.575684 4.61621 0.582214 4.58351 0.594898 4.553C0.607583 4.5225 0.626172 4.49481 0.649596 4.47152L1.67499 3.44499C1.77297 3.347 1.93133 3.347 2.02932 3.44499L4.70331 6.10303C4.80129 6.20101 4.96079 6.19987 5.05878 6.10189L10.9673 0.136393C11.0653 0.0372715 11.2248 0.0372715 11.3239 0.135253L12.3504 1.16178C12.4484 1.25976 12.4484 1.41813 12.3516 1.51611L5.91441 8.01139L5.91555 8.01253L5.06675 8.86588C4.96877 8.96386 4.80926 8.96386 4.71128 8.86588Z" fill="#585757"/>
</svg>
