<svg width="10" height="10" viewBox="0 0 10 10" fill="none" xmlns="http://www.w3.org/2000/svg">
<path d="M5 0.625C2.58398 0.625 0.625 2.58398 0.625 5C0.625 7.41602 2.58398 9.375 5 9.375C7.41602 9.375 9.375 7.41602 9.375 5C9.375 2.58398 7.41602 0.625 5 0.625ZM6.72363 6.34473L6.44434 6.72559C6.43826 6.73388 6.43061 6.74089 6.42181 6.74622C6.41302 6.75154 6.40326 6.75508 6.3931 6.75662C6.38294 6.75816 6.37257 6.75768 6.36259 6.75521C6.35261 6.75273 6.34322 6.7483 6.33496 6.74219L4.71973 5.56445C4.70966 5.55723 4.70148 5.54769 4.69588 5.53664C4.69027 5.5256 4.6874 5.51336 4.6875 5.50098V2.8125C4.6875 2.76953 4.72266 2.73438 4.76562 2.73438H5.23535C5.27832 2.73438 5.31348 2.76953 5.31348 2.8125V5.22949L6.70605 6.23633C6.74121 6.26074 6.74902 6.30957 6.72363 6.34473Z" fill="white"/>
</svg>
