<svg viewBox="0 0 14 15" xmlns="http://www.w3.org/2000/svg">
<path fill-rule="evenodd" clip-rule="evenodd" d="M10.0276 9.52893L13.7934 13.2948C13.9257 13.4273 14.0001 13.6069 14 13.7942C13.9999 13.9814 13.9255 14.161 13.793 14.2934C13.6606 14.4257 13.481 14.5001 13.2937 14.5C13.1064 14.4999 12.9269 14.4255 12.7945 14.293L9.0287 10.5271C7.90295 11.3991 6.48731 11.8094 5.06977 11.6746C3.65223 11.5399 2.33927 10.8701 1.39799 9.80165C0.456712 8.73318 -0.0421836 7.34624 0.0027973 5.92299C0.0477782 4.49973 0.633257 3.14707 1.64013 2.14017C2.647 1.13327 3.99963 0.547779 5.42285 0.502797C6.84607 0.457815 8.23297 0.956724 9.30142 1.89803C10.3699 2.83933 11.0396 4.15233 11.1743 5.5699C11.3091 6.98748 10.8988 8.40315 10.0269 9.52893H10.0276ZM5.60026 10.2996C6.71412 10.2996 7.78235 9.85712 8.56997 9.06948C9.35759 8.28185 9.80007 7.21358 9.80007 6.0997C9.80007 4.98581 9.35759 3.91755 8.56997 3.12992C7.78235 2.34228 6.71412 1.89979 5.60026 1.89979C4.4864 1.89979 3.41817 2.34228 2.63055 3.12992C1.84293 3.91755 1.40046 4.98581 1.40046 6.0997C1.40046 7.21358 1.84293 8.28185 2.63055 9.06948C3.41817 9.85712 4.4864 10.2996 5.60026 10.2996Z" fill="currentcolor"/>
</svg>
