<svg width="8" height="8" viewBox="0 0 8 8" fill="none" xmlns="http://www.w3.org/2000/svg">
<path d="M7.53625 6.14136L5.8425 4.60136C5.76243 4.52859 5.65722 4.48978 5.54908 4.49312C5.44094 4.49647 5.33833 4.5417 5.26291 4.61928L4.26583 5.64469C4.02583 5.59886 3.54333 5.44844 3.04666 4.95303C2.55 4.45594 2.39958 3.97219 2.355 3.73386L3.37958 2.73636C3.45725 2.661 3.50255 2.55837 3.5059 2.4502C3.50924 2.34202 3.47036 2.23679 3.3975 2.15678L1.85791 0.463443C1.78501 0.383175 1.6837 0.334486 1.57548 0.327718C1.46726 0.320949 1.36066 0.356634 1.27833 0.427193L0.374162 1.20261C0.302125 1.27491 0.259129 1.37113 0.253329 1.47303C0.247079 1.57719 0.127912 4.04469 2.04125 5.95886C3.71041 7.62761 5.80125 7.74969 6.37708 7.74969C6.46125 7.74969 6.51291 7.74719 6.52666 7.74636C6.62854 7.74066 6.72472 7.69747 6.79666 7.62511L7.57166 6.72053C7.6425 6.63846 7.67845 6.53195 7.67183 6.42373C7.66522 6.31552 7.61656 6.21419 7.53625 6.14136Z" fill="white"/>
</svg>
