<svg width="14" height="12" viewBox="0 0 14 12" fill="none" xmlns="http://www.w3.org/2000/svg">
<path d="M11.481 4.14845L8.65177 3.75745L7.38722 1.32696C7.16064 0.893731 6.50416 0.888224 6.27565 1.32696L5.01109 3.75745L2.18182 4.14845C1.67445 4.21821 1.47111 4.81115 1.83905 5.15075L3.88597 7.04154L3.40183 9.7125C3.31469 10.1953 3.85111 10.5569 4.30038 10.3311L6.83143 9.07L9.36248 10.3311C9.81176 10.5551 10.3482 10.1953 10.261 9.7125L9.7769 7.04154L11.8238 5.15075C12.1918 4.81115 11.9884 4.21821 11.481 4.14845ZM8.77958 6.73314L9.23854 9.27377L6.83143 8.07505L4.42432 9.27377L4.88328 6.73314L2.93513 4.93414L5.62691 4.56332L6.83143 2.25032L8.03595 4.56332L10.7277 4.93414L8.77958 6.73314Z" fill="#C90606"/>
</svg>
