<svg width="14" height="12" viewBox="0 0 14 12" fill="none" xmlns="http://www.w3.org/2000/svg">
<path d="M12.0902 4.13787L8.97645 3.70544L7.58451 1.00895C7.54649 0.935124 7.48394 0.875359 7.40668 0.83903C7.21291 0.747624 6.97745 0.823796 6.88056 1.00895L5.48862 3.70544L2.37484 4.13787C2.289 4.14959 2.21051 4.18826 2.15041 4.24685C2.07777 4.3182 2.03773 4.4142 2.03911 4.51374C2.04049 4.61328 2.08317 4.70822 2.15777 4.77771L4.41063 6.87654L3.87838 9.84022C3.8659 9.90917 3.87389 9.98007 3.90143 10.0449C3.92897 10.1097 3.97498 10.1659 4.03422 10.207C4.09346 10.2481 4.16358 10.2725 4.23661 10.2775C4.30964 10.2825 4.38268 10.2678 4.44743 10.2351L7.23254 8.83593L10.0176 10.2351C10.0937 10.2738 10.182 10.2867 10.2666 10.2726C10.48 10.2375 10.6235 10.0441 10.5867 9.84022L10.0544 6.87654L12.3073 4.77771C12.3686 4.72029 12.4091 4.64529 12.4214 4.56326C12.4545 4.35818 12.3048 4.16834 12.0902 4.13787Z" fill="#C90606"/>
</svg>
