<?xml version="1.0" standalone="no"?>
<!DOCTYPE svg PUBLIC "-//W3C//DTD SVG 20010904//EN"
 "http://www.w3.org/TR/2001/REC-SVG-20010904/DTD/svg10.dtd">
<svg version="1.0" xmlns="http://www.w3.org/2000/svg"
 width="210.000000pt" height="210.000000pt" viewBox="0 0 210.000000 210.000000"
 preserveAspectRatio="xMidYMid meet">
<metadata>
Created by potrace 1.14, written by Peter Selinger 2001-2017
</metadata>
<g transform="translate(0.000000,210.000000) scale(0.100000,-0.100000)"
fill="#000000" stroke="none">
<path d="M964 1865 c-9 -23 3 -45 25 -45 23 0 32 18 19 43 -11 21 -37 22 -44
2z"/>
<path d="M184 1858 c-17 -4 -41 -19 -55 -34 l-24 -26 -3 -329 c-3 -282 -1
-334 13 -362 43 -91 182 -89 230 3 12 22 15 68 15 195 0 91 -3 165 -7 166 -41
5 -95 4 -104 -2 -7 -4 -9 -14 -6 -23 5 -12 15 -15 36 -11 18 3 30 0 33 -8 2
-6 3 -77 2 -156 -1 -144 -1 -145 -28 -168 -27 -23 -79 -31 -103 -15 -35 22
-38 54 -38 363 1 167 4 313 8 324 10 29 41 45 102 51 46 5 55 3 56 -10 1 -9 2
-53 3 -98 1 -78 2 -83 24 -86 22 -3 22 -2 22 116 l0 119 -73 -1 c-41 0 -87 -4
-103 -8z"/>
<path d="M1229 1718 c-1 -2 -3 -16 -4 -33 -2 -16 -3 -33 -4 -37 -1 -4 -8 -5
-16 -2 -8 3 -19 3 -25 -1 -16 -10 7 -45 25 -39 18 7 17 24 19 -262 1 -248 6
-271 53 -293 13 -6 35 -11 49 -11 37 0 27 32 -12 42 -20 5 -34 16 -38 30 -3
13 -6 130 -6 261 l0 238 23 -1 c46 -4 57 0 57 21 0 13 -6 20 -17 18 -54 -5
-63 0 -63 36 0 28 -4 35 -20 35 -11 0 -21 -1 -21 -2z"/>
<path d="M1554 1642 c-44 -37 -60 -102 -26 -102 11 0 23 13 30 34 21 56 80 61
100 8 6 -15 10 -62 10 -104 l0 -78 -50 0 c-41 0 -54 -5 -79 -29 -17 -18 -29
-41 -30 -58 -1 -29 0 -214 0 -247 1 -16 8 -18 77 -14 69 3 79 6 100 31 24 28
24 30 24 262 0 128 -4 245 -10 259 -19 50 -105 72 -146 38z m113 -403 c-3
-137 -9 -149 -80 -149 l-39 0 4 118 c4 139 10 152 74 152 l43 0 -2 -121z"/>
<path d="M556 1640 c-1 -3 -2 -123 -1 -267 1 -280 4 -300 52 -322 55 -25 115
-6 141 45 7 14 10 113 9 285 -2 257 -3 264 -22 264 -19 0 -20 -7 -21 -245 -1
-135 -2 -255 -3 -267 -3 -51 -67 -71 -95 -31 -14 19 -16 64 -16 285 0 259 0
262 -21 260 -11 -1 -22 -4 -23 -7z"/>
<path d="M968 1645 c0 0 -2 -134 -3 -297 l-1 -298 23 0 23 0 0 299 c0 294 0
300 -20 298 -11 -1 -21 -1 -22 -2z"/>
<path d="M1939 1621 c-17 -18 -29 -41 -30 -58 -1 -37 -1 -461 0 -490 1 -16 7
-23 21 -23 19 0 20 7 20 253 0 276 4 300 53 305 15 2 32 12 37 23 10 17 7 19
-30 19 -33 0 -48 -6 -71 -29z"/>
<path d="M37 938 c-7 -4 202 -8 464 -8 l475 0 0 -52 -1 -53 -283 0 c-155 0
-282 -3 -282 -7 0 -5 128 -8 284 -8 l285 0 -2 -167 c-1 -104 2 -170 8 -173 6
-3 18 19 27 49 19 57 37 87 39 60 4 -100 16 -129 51 -129 20 0 20 0 0 18 -19
15 -27 48 -31 130 -1 20 -29 14 -42 -10 -7 -13 -18 -41 -26 -63 -12 -36 -12
-30 -7 70 4 61 8 133 9 160 l2 50 549 5 c302 3 545 7 539 9 -5 1 -249 4 -542
4 -292 1 -534 5 -538 9 -4 3 -7 26 -8 50 l-1 43 549 5 c303 3 541 7 530 8 -43
7 -2038 7 -2048 0z"/>
<path d="M1678 698 c-13 -3 78 -6 201 -7 123 -1 221 2 218 5 -8 9 -390 11
-419 2z"/>
<path d="M780 684 c-8 -8 -12 -28 -11 -45 1 -16 3 -45 4 -65 2 -26 4 -32 11
-21 8 13 13 11 28 -8 10 -13 18 -33 18 -44 0 -23 -31 -42 -38 -23 -6 19 -22
14 -22 -7 0 -49 61 -19 75 36 5 20 -3 39 -33 82 -21 31 -37 64 -34 74 6 27 22
9 23 -26 l1 -32 8 29 c6 18 5 36 -1 48 -12 22 -13 22 -29 2z"/>
<path d="M1475 630 c-4 -23 -9 -71 -10 -108 -3 -41 -14 -92 -30 -132 -56 -141
-76 -283 -50 -346 17 -40 47 -45 69 -11 34 52 46 137 42 304 l-4 161 30 36
c33 40 68 48 68 16 0 -10 -17 -37 -38 -60 -22 -22 -36 -40 -32 -40 11 0 76 64
88 87 41 75 -42 75 -95 0 l-23 -32 -2 35 c0 19 0 56 1 83 2 58 -5 61 -14 7z
m-6 -350 c2 -156 -13 -250 -40 -250 -10 0 -21 10 -25 23 -8 26 -8 136 1 187
10 61 48 179 56 175 4 -3 8 -64 8 -135z"/>
<path d="M1239 591 c-16 -16 -29 -35 -30 -43 0 -7 -2 -21 -4 -30 -4 -23 24
-58 50 -62 46 -7 95 54 89 109 -6 59 -59 72 -105 26z m66 -7 c22 -23 16 -83
-10 -100 -31 -21 -65 6 -65 51 0 55 41 82 75 49z"/>
<path d="M1797 578 c-7 -4 60 -8 147 -8 88 0 156 3 153 6 -9 9 -287 11 -300 2z"/>
<path d="M756 513 c-6 -14 -5 -15 5 -6 7 7 10 15 7 18 -3 3 -9 -2 -12 -12z"/>
</g>
</svg>
